# xmcd
#
# Track frame offsets: 
#        150
#        18942
#        36414
#
# Disc length: 718 seconds
#
# Revision: 0
# Processed by: cddbd v1.5.2PL0 Copyright (c) Steve Scherf et al.
# Submitted via: ExactAudioCopy v0.99pb5
#
DISCID=1c02cc03
DTITLE=Disturbed - Remember [CD Single)
DYEAR=2002
DGENRE=Nu-Metal
TTITLE0=Remember
TTITLE1=Bound (Live)
TTITLE2=Mistress (Live)
EXTD=
EXTT0=
EXTT1=
EXTT2=
PLAYORDER=
